<?xml version="1.0" encoding="UTF-8"?>
<!DOCTYPE svg PUBLIC "-//W3C//DTD SVG 1.1//EN" "http://www.w3.org/Graphics/SVG/1.1/DTD/svg11.dtd">
<!-- Creator: CorelDRAW -->
<svg xmlns="http://www.w3.org/2000/svg" xml:space="preserve" width="118.768mm" height="118.696mm" version="1.1" style="shape-rendering:geometricPrecision; text-rendering:geometricPrecision; image-rendering:optimizeQuality; fill-rule:evenodd; clip-rule:evenodd"
viewBox="0 0 11876.76 11869.6"
 xmlns:xlink="http://www.w3.org/1999/xlink"
 xmlns:xodm="http://www.corel.com/coreldraw/odm/2003">
 <defs>
  <style type="text/css">
   <![CDATA[
    .fil3 {fill:none;fill-rule:nonzero}
    .fil1 {fill:#009846;fill-rule:nonzero}
    .fil0 {fill:#7E71B1;fill-rule:nonzero}
    .fil2 {fill:#EF7F1A;fill-rule:nonzero}
   ]]>
  </style>
 </defs>
 <g id="Layer_x0020_1">
  <metadata id="CorelCorpID_0Corel-Layer"/>
  <g id="_2142155344096">
   <path class="fil0" d="M9080.65 2699.49l-128.07 -1437.92c-26.46,-298.98 -293.69,-508 -605.9,-484.19l-7831.66 642.94c-312.21,26.46 -537.1,277.81 -513.29,574.15l560.91 6238.88c26.46,298.98 296.33,508 605.9,484.19l396.88 -31.75 518.88 -413.32 435.38 -5121.77 6560.97 -451.21zm-7398.81 3798.18l-460.38 653.53 -423.33 -4709.57c0,-5.29 0,-7.94 0,-13.23 0,-5.29 0,-7.94 0,-13.23 13.23,-132.29 113.77,-238.13 251.35,-248.71l6905.61 -566.21c137.58,-10.58 256.65,79.38 277.81,209.02 0,5.29 7.94,5.29 7.94,10.58 0,2.65 7.94,5.29 7.94,10.58l77.14 853.21 -6191.97 264.29 -80.88 3336.64 -371.24 213.11 0.01 -0.01z"/>
   <path class="fil1" d="M2525.86 2367.53c-349.25,-10.58 -640.29,232.84 -656.17,563.56l-367.76 6966.48c-15.88,333.38 243.42,603.25 592.67,621.77l8736.52 415.39c349.25,15.88 637.65,-227.54 656.17,-560.91l367.77 -6966.47c15.87,-330.72 -246.07,-600.6 -592.67,-616.48l-8736.53 -423.33 0 -0.01zm8183.55 6831.54l-1235.6 -1463.14 -727.6 -865.19c-63.5,-76.73 -166.69,-140.23 -280.46,-145.52 -113.77,-5.29 -198.44,39.69 -293.69,108.48l-433.92 314.85c-92.6,55.56 -164.04,92.6 -261.94,87.31 -95.25,-5.29 -179.92,-42.33 -240.77,-100.54 -21.17,-21.17 -60.85,-58.21 -92.6,-89.96l-1132.42 -1293.81c-82.02,-103.19 -216.96,-169.33 -365.12,-177.27 -150.81,-7.94 -296.33,55.56 -391.58,148.17l-2674.93 2878.68 -179.92 195.79 7.94 -179.92 179.92 -3410.47 87.31 -1664.23c0,-5.29 0,-10.58 0,-13.23 0,-5.29 0,-10.58 0,-13.23 37.04,-142.88 164.04,-246.06 314.85,-238.13l5402.79 259.29 759.35 37.04 1542.52 74.08c153.46,7.94 272.52,124.35 275.17,269.88 0,5.29 7.94,7.94 7.94,13.23 0,5.29 7.94,7.94 7.94,13.23l-275.17 5254.63 -0.01 -0.02z"/>
   <path class="fil2" d="M9029.32 6021.42c513.29,0 931.33,-418.04 931.33,-931.33 0,-513.29 -415.4,-931.33 -931.33,-931.33 -513.29,0 -931.33,415.4 -931.33,931.33 0,515.93 415.39,931.33 931.33,931.33z"/>
  </g>
  <rect class="fil3" x="7.16" width="11869.6" height="11869.6"/>
 </g>
</svg>
